<svg xmlns="http://www.w3.org/2000/svg" xmlns:xlink="http://www.w3.org/1999/xlink" viewBox="0 0 459.39 408.69"><defs><style>.cls-1,.cls-3{fill:none;}.cls-2{clip-path:url(#clip-path);}.cls-3{stroke:#fff;stroke-miterlimit:10;stroke-width:2px;}</style><clipPath id="clip-path" transform="translate(-37.69 -59.29)"><rect class="cls-1" width="364.48" height="438.23"/></clipPath></defs><title>資產 21</title><g id="圖層_2" data-name="圖層 2"><g id="圖層_1-2" data-name="圖層 1"><g class="cls-2"><path class="cls-3" d="M473.46,291c-5.18-1.4-5.57-7.62-5.57-7.62,15.37-35.16-11.35-37.5-15.48-35.87s-4.18-1-4.18-1C437.85,153.07,372,104.58,372,104.58c-93.16-63.71-160.26-43.9-199.31-30.37s-118,67.54-131.5,155.67S72.56,377.63,72.56,377.63c-5.94,8.38-10.75,49-10.75,49,.49,45.92,45.74,40.11,45.74,40.11,40.23-16.74,52.24-14.13,52.24-14.13,41.5,3.71,57.79-15.38,57.79-15.38s26.1-23.31,47.3-20.41,52.48-9.14,52.48-9.14S431,386.4,443.28,368.63s45.83-36.1,45.83-36.1C509.67,307.45,478.64,292.37,473.46,291ZM328.65,230.39c18.7-5.79,36.48-1.2,45.81,3.09s24.28-7.78,24.28-7.78c-7.67,19.31-23.58,16.62-23.58,16.62-13.25-6.13-16.9-3-16.9-3-44.11,11.42-60.72-7.33-60.72-7.33S310,236.17,328.65,230.39Zm-53.26,23S300,261.68,306.5,258s28.78,6.49,28.41,11.43-12.71,3.29-20.87,2.19S277.75,266.07,275.39,253.37Zm-49.5-8c15.32,17,44,16.07,44,16.07,1.06,10.76-8.91,7.89-8.91,7.89C217.58,258.58,225.89,245.33,225.89,245.33ZM97.8,303.2c13.8,8.39,18.83,4.14,18.83,4.14,28.72-15.31,45.15-8.06,45.15-8.06,29.27-17.41,72.42-19.51,72.42-19.51C228,292.75,202.34,297,202.34,297c-11.9.36-48.28,19.59-48.28,19.59C100.13,331.71,67.27,296,67.27,296Zm-.4,64.46a2.59,2.59,0,0,1-1.14-.61s.39.23,1.14.61c11.16,3.59,87.24-17.62,112.34-43.82,26.22-27.37,39.75-17.31,39.75-17.31C217.75,319.19,213.93,331,213.93,331,156.52,393.87,105.56,371.81,97.4,367.66Zm305.35-78s-35,13.54-45.44,31.15-29.19,19.13-29.86,19.73-6.95.51-47.57,18.35-53.34,11.48-53.34,11.48,16.26-14.81,37.87-20.6S305.77,330,305.77,330c6.46-14.42,28.89-21.19,28.89-21.19,24.18-7.53,32.49-23,32.49-23,13.35-20.1,22.94-23.41,43.14-22.36s24.23-14.4,24.23-14.4C444.23,270.19,402.75,289.65,402.75,289.65Z" transform="translate(-37.69 -59.29)"/></g></g></g></svg>